<?xml version="1.0" encoding="UTF-8" standalone="no"?>
<svg
   xmlns:osb="http://www.openswatchbook.org/uri/2009/osb"
   xmlns:dc="http://purl.org/dc/elements/1.1/"
   xmlns:cc="http://creativecommons.org/ns#"
   xmlns:rdf="http://www.w3.org/1999/02/22-rdf-syntax-ns#"
   xmlns:svg="http://www.w3.org/2000/svg"
   xmlns="http://www.w3.org/2000/svg"
   xmlns:xlink="http://www.w3.org/1999/xlink"
   xmlns:sodipodi="http://sodipodi.sourceforge.net/DTD/sodipodi-0.dtd"
   xmlns:inkscape="http://www.inkscape.org/namespaces/inkscape"
   xml:space="preserve"
   version="1.1"
   overflow="visible"
   viewBox="0 0 94.332 101.883"
   id="svg2985"
   inkscape:version="0.48.1 r9760"
   width="100%"
   height="100%"
   sodipodi:docname="lodspeakr_logotype.svg"><metadata
   id="metadata3011"><rdf:RDF><cc:Work
       rdf:about=""><dc:format>image/svg+xml</dc:format><dc:type
         rdf:resource="http://purl.org/dc/dcmitype/StillImage" /><dc:title></dc:title></cc:Work></rdf:RDF></metadata><defs
   id="defs3009"><marker
     inkscape:stockid="Arrow1Mend"
     orient="auto"
     refY="0.0"
     refX="0.0"
     id="Arrow1Mend"
     style="overflow:visible;"><path
       id="path4396"
       d="M 0.0,0.0 L 5.0,-5.0 L -12.5,0.0 L 5.0,5.0 L 0.0,0.0 z "
       style="fill-rule:evenodd;stroke:#000000;stroke-width:1.0pt;marker-start:none;"
       transform="scale(0.4) rotate(180) translate(10,0)" /></marker><marker
     inkscape:stockid="Arrow1Mstart"
     orient="auto"
     refY="0.0"
     refX="0.0"
     id="Arrow1Mstart"
     style="overflow:visible"><path
       id="path4393"
       d="M 0.0,0.0 L 5.0,-5.0 L -12.5,0.0 L 5.0,5.0 L 0.0,0.0 z "
       style="fill-rule:evenodd;stroke:#000000;stroke-width:1.0pt;marker-start:none"
       transform="scale(0.4) translate(10,0)" /></marker><marker
     inkscape:stockid="Arrow1Lstart"
     orient="auto"
     refY="0.0"
     refX="0.0"
     id="Arrow1Lstart"
     style="overflow:visible"><path
       id="path4387"
       d="M 0.0,0.0 L 5.0,-5.0 L -12.5,0.0 L 5.0,5.0 L 0.0,0.0 z "
       style="fill-rule:evenodd;stroke:#000000;stroke-width:1.0pt;marker-start:none"
       transform="scale(0.8) translate(12.5,0)" /></marker><linearGradient
     inkscape:collect="always"
     id="linearGradient5564"><stop
       style="stop-color:#000000;stop-opacity:1;"
       offset="0"
       id="stop5566" /><stop
       style="stop-color:#000000;stop-opacity:0;"
       offset="1"
       id="stop5568" /></linearGradient><linearGradient
     id="linearGradient5550"><stop
       style="stop-color:#000000;stop-opacity:1;"
       offset="0"
       id="stop5552" /><stop
       style="stop-color:#000000;stop-opacity:0;"
       offset="1"
       id="stop5554" /></linearGradient><linearGradient
     id="linearGradient5538"
     osb:paint="solid"><stop
       style="stop-color:#000000;stop-opacity:1;"
       offset="0"
       id="stop5540" /></linearGradient><inkscape:perspective
     id="perspective3756"
     inkscape:persp3d-origin="106.29921 : 70.86615 : 1"
     inkscape:vp_z="212.59842 : 106.29922 : 1"
     inkscape:vp_y="0 : 1000 : 0"
     inkscape:vp_x="0 : 106.29922 : 1"
     sodipodi:type="inkscape:persp3d" /><inkscape:path-effect
     is_visible="true"
     id="path-effect4327"
     effect="spiro" /><inkscape:path-effect
     is_visible="true"
     id="path-effect4331"
     effect="spiro" /><inkscape:path-effect
     effect="spiro"
     id="path-effect4335"
     is_visible="true" /><linearGradient
     inkscape:collect="always"
     xlink:href="#linearGradient5550"
     id="linearGradient5556"
     x1="61.2829"
     y1="80.082329"
     x2="85.047"
     y2="80.082329"
     gradientUnits="userSpaceOnUse" /><linearGradient
     inkscape:collect="always"
     xlink:href="#linearGradient5550"
     id="linearGradient5558"
     x1="3.6598998"
     y1="50.423472"
     x2="27.427"
     y2="50.423472"
     gradientUnits="userSpaceOnUse" /><linearGradient
     inkscape:collect="always"
     xlink:href="#linearGradient5550"
     id="linearGradient5560"
     x1="58.0944"
     y1="15.319321"
     x2="81.861"
     y2="15.319321"
     gradientUnits="userSpaceOnUse" /><linearGradient
     inkscape:collect="always"
     xlink:href="#linearGradient5564"
     id="linearGradient5570"
     x1="-37.357341"
     y1="47.051277"
     x2="63.408364"
     y2="47.051277"
     gradientUnits="userSpaceOnUse" /><linearGradient
     inkscape:collect="always"
     xlink:href="#linearGradient5550"
     id="linearGradient5580"
     gradientUnits="userSpaceOnUse"
     x1="58.0944"
     y1="15.319321"
     x2="81.861"
     y2="15.319321" /><linearGradient
     inkscape:collect="always"
     xlink:href="#linearGradient5550"
     id="linearGradient5582"
     gradientUnits="userSpaceOnUse"
     x1="3.6598998"
     y1="50.423472"
     x2="27.427"
     y2="50.423472" /><linearGradient
     inkscape:collect="always"
     xlink:href="#linearGradient5550"
     id="linearGradient5584"
     gradientUnits="userSpaceOnUse"
     x1="3.6598998"
     y1="50.423472"
     x2="27.427"
     y2="50.423472" /><linearGradient
     inkscape:collect="always"
     xlink:href="#linearGradient5550"
     id="linearGradient5586"
     gradientUnits="userSpaceOnUse"
     x1="61.2829"
     y1="80.082329"
     x2="85.047"
     y2="80.082329" /><linearGradient
     inkscape:collect="always"
     xlink:href="#linearGradient5550"
     id="linearGradient5588"
     gradientUnits="userSpaceOnUse"
     x1="61.2829"
     y1="80.082329"
     x2="85.047"
     y2="80.082329" /><filter
     id="filter3627"
     inkscape:label="Drop shadow"
     width="1.5"
     height="1.5"
     x="-.25"
     y="-.25"><feGaussianBlur
       id="feGaussianBlur3629"
       in="SourceAlpha"
       stdDeviation="5"
       result="blur" /><feColorMatrix
       id="feColorMatrix3631"
       result="bluralpha"
       type="matrix"
       values="1 0 0 0 0 0 1 0 0 0 0 0 1 0 0 0 0 0 1 0 " /><feOffset
       id="feOffset3633"
       in="bluralpha"
       dx="0"
       dy="0"
       result="offsetBlur" /><feMerge
       id="feMerge3635"><feMergeNode
         id="feMergeNode3637"
         in="offsetBlur" /><feMergeNode
         id="feMergeNode3639"
         in="SourceGraphic" /></feMerge></filter></defs><sodipodi:namedview
   pagecolor="#ffffff"
   bordercolor="#666666"
   borderopacity="1"
   objecttolerance="10"
   gridtolerance="10"
   guidetolerance="10"
   inkscape:pageopacity="0"
   inkscape:pageshadow="2"
   inkscape:window-width="1230"
   inkscape:window-height="756"
   id="namedview3007"
   showgrid="false"
   inkscape:zoom="1.4142136"
   inkscape:cx="26.828299"
   inkscape:cy="-525.17378"
   inkscape:window-x="0"
   inkscape:window-y="0"
   inkscape:window-maximized="1"
   inkscape:current-layer="svg2985" />
  <flowRoot
   xml:space="preserve"
   id="flowRoot3146"
   style="font-size:180px;font-style:normal;font-weight:normal;line-height:125%;letter-spacing:0px;word-spacing:0px;fill:#b3b3b3;fill-opacity:1;stroke:none;font-family:Sansation"
   transform="matrix(0.8182708,0,0,0.75069429,-288.58326,304.00714)"
   inkscape:export-xdpi="90"
   inkscape:export-ydpi="90"><flowRegion
     id="flowRegion3148"><rect
       id="rect3150"
       width="740.67883"
       height="224.38507"
       x="164.75587"
       y="507.05518"
       style="font-size:180px;fill:#b3b3b3" /></flowRegion><flowPara
     id="flowPara3162"
     style="font-size:102.07276917px;font-style:normal;font-variant:normal;font-weight:normal;font-stretch:normal;text-align:start;line-height:125%;writing-mode:lr-tb;text-anchor:start;fill:#000000;font-family:Sansation;-inkscape-font-specification:Sansation">LODSPeaKr</flowPara></flowRoot><g
   shape-rendering="geometricPrecision"
   text-rendering="geometricPrecision"
   image-rendering="optimizeQuality"
   id="g2987"
   transform="matrix(1.5439515,-0.59146504,0.53162558,1.3877475,-122.25005,554.93956)"
   inkscape:export-filename="/Users/alvarograves/Downloads/flowRoot3146.png"
   inkscape:export-xdpi="90"
   inkscape:export-ydpi="90">
    <path
   d="m 48.22037,59.248776 c -0.707634,-0.131603 -1.411782,-0.211904 -2.110187,-0.260471 l 0.433365,-0.175484 c 0,0 -4.510534,-0.513936 -8.842915,-13.138167 C 33.371471,33.04732 36.8104,29.585846 36.8104,29.585846 L 36.226781,29.79684 C 38.83904,27.226012 40.726333,23.865715 41.450749,19.984019 43.3432,9.8854468 36.68316,0.1620919 26.582381,-1.7307157 16.479578,-3.6166023 6.7566957,3.0349067 4.8697967,13.141171 c -0.778629,4.14701 -0.093421,8.220328 1.658969,11.72275 l -0.299712,-0.247776 c 0,0 2.489644,4.294332 -6.23794903,14.409688 C -8.7333853,49.144409 -14.66818,47.324323 -14.66818,47.324323 l 0.454513,0.360685 c -0.370207,-0.09473 -0.728248,-0.197451 -1.104645,-0.265091 -10.104596,-1.891612 -19.829146,4.76461 -21.71885,14.868609 -1.888094,10.102447 4.767589,19.821926 14.86992,21.716344 7.529821,1.405639 14.8444187,-1.933096 18.8631277,-7.91069 l -0.04592,0.26167 c 0,0 2.92783297,-4.478216 16.2019273,-1.934729 10.477616,2.005367 13.286896,6.306518 14.012803,8.026187 1.824538,6.651694 7.273315,12.030504 14.508057,13.383914 10.10203,1.893463 19.82568,-4.765622 21.71408,-14.867115 C 64.979343,70.862374 58.323771,61.136571 48.22037,59.248776 z m -19.294922,8.603321 c -1.276377,0.957028 -5.20117,2.80287 -15.283294,0.87593 C 2.7211377,66.635129 0.02082167,62.876188 -0.57650533,61.68106 -0.92185833,60.112605 -1.4839013,58.615128 -2.2098913,57.20984 l 0.08415,0.06797 c 0,0 -2.038425,-3.840404 6.580002,-13.832518 7.7141663,-8.940957 12.4370223,-9.121153 13.3443433,-9.064637 0.631902,0.190938 1.275422,0.352042 1.9367,0.476151 1.256691,0.235307 2.507945,0.336094 3.737067,0.315971 1.709537,0.841712 5.248183,3.643487 8.430593,12.925644 3.210243,9.350986 1.577414,13.855518 0.469428,15.614881 -1.33508,1.191263 -2.497117,2.587175 -3.446942,4.1388 z"
   id="path2989"
   inkscape:connector-curvature="0"
   style="fill:url(#linearGradient5570);fill-opacity:1;stroke:#000000;stroke-opacity:1" />
    <g
   id="g2991"
   transform="matrix(0.95433053,-0.29875279,0.29875279,0.95433053,-52.340285,20.694814)"
   style="fill:url(#linearGradient5560);fill-opacity:1">
      <path
   d="m 62.239,8.1 c -5.415,5.923 -5.529,14.636 -0.312,19.566 -2.579,-2.483 -2.523,-7.651 0.083,-12.597 0.335,-0.443 1.306,-1.49 2.725,-1.014 0.143,0.049 0.237,0.062 0.292,0.053 0.321,0.069 0.65,0.11 0.99,0.095 2.155,-0.098 3.822,-1.921 3.725,-4.077 C 69.698,9.159 69.297,8.303 68.677,7.646 73.679,4.369 79.419,3.994 81.771,6.142 l 0.09,0.006 C 76.488,1.242 67.705,2.119 62.239,8.1 z"
   id="path2993"
   inkscape:connector-curvature="0"
   style="fill:url(#linearGradient5580);fill-opacity:1" />
    </g>
    <g
   id="g2995"
   transform="matrix(0.95433053,-0.29875279,0.29875279,0.95433053,-52.340285,20.694814)"
   style="fill:url(#linearGradient5558);fill-opacity:1">
      <path
   d="M 7.632,62.845 C 7.586,62.798 7.539,62.743 7.491,62.697 c 0.03,0.031 0.059,0.069 0.095,0.102 l 0.046,0.046 z"
   id="path2997"
   inkscape:connector-curvature="0"
   style="fill:url(#linearGradient5582);fill-opacity:1" />
      <path
   d="M 7.805,43.13 C 2.389,49.054 2.276,57.765 7.492,62.696 4.914,60.212 4.969,55.044 7.575,50.098 c 0.336,-0.444 1.308,-1.49 2.727,-1.014 0.141,0.049 0.236,0.061 0.292,0.054 0.321,0.069 0.651,0.11 0.99,0.095 2.156,-0.099 3.822,-1.922 3.725,-4.076 -0.045,-0.967 -0.445,-1.824 -1.063,-2.48 4.999,-3.276 10.74,-3.654 13.092,-1.505 l 0.089,0.008 C 22.054,36.271 13.269,37.147 7.805,43.13 z"
   id="path2999"
   inkscape:connector-curvature="0"
   style="fill:url(#linearGradient5584);fill-opacity:1" />
    </g>
    <g
   id="g3001"
   transform="matrix(0.95433053,-0.29875279,0.29875279,0.95433053,-52.340285,20.694814)"
   style="fill:url(#linearGradient5556);fill-opacity:1">
      <path
   d="m 65.256,92.504 c -0.047,-0.048 -0.094,-0.102 -0.141,-0.148 0.029,0.031 0.059,0.069 0.094,0.101 l 0.047,0.047 z"
   id="path3003"
   inkscape:connector-curvature="0"
   style="fill:url(#linearGradient5586);fill-opacity:1" />
      <path
   d="m 65.428,72.786 c -5.416,5.926 -5.529,14.639 -0.313,19.569 -2.58,-2.483 -2.523,-7.653 0.082,-12.597 0.336,-0.445 1.307,-1.49 2.727,-1.014 0.143,0.047 0.235,0.061 0.292,0.053 0.32,0.069 0.651,0.11 0.99,0.096 2.154,-0.1 3.82,-1.924 3.723,-4.08 -0.044,-0.966 -0.445,-1.822 -1.063,-2.479 5,-3.275 10.739,-3.652 13.093,-1.504 l 0.088,0.007 c -5.37,-4.907 -14.156,-4.03 -19.619,1.949 z"
   id="path3005"
   inkscape:connector-curvature="0"
   style="fill:url(#linearGradient5588);fill-opacity:1" />
    </g>
  </g>
<g
   id="g4012"
   transform="matrix(0.66327308,0,0,0.66327308,-56.597238,206.18908)"
   style="stroke:#818264;stroke-width:4.52302408;stroke-miterlimit:4;stroke-opacity:1;stroke-dasharray:none"
   inkscape:export-filename="/Users/alvarograves/Downloads/flowRoot3146.png"
   inkscape:export-xdpi="90"
   inkscape:export-ydpi="90" /><path
   sodipodi:type="arc"
   style="fill:none;stroke:#000000;stroke-width:4;stroke-miterlimit:4;stroke-opacity:1;stroke-dasharray:none;"
   id="path3071"
   sodipodi:cx="-65.053825"
   sodipodi:cy="616.65674"
   sodipodi:rx="152.73506"
   sodipodi:ry="144.24979"
   d="m 59.393816,533.02788 a 152.73506,144.24979 0 0 1 7.059217,156.99186"
   transform="translate(82.024384,-8.4852823)"
   sodipodi:start="5.6647631"
   sodipodi:end="6.8167237"
   sodipodi:open="true"
   inkscape:export-filename="/Users/alvarograves/Downloads/flowRoot3146.png"
   inkscape:export-xdpi="90"
   inkscape:export-ydpi="90" /><path
   transform="translate(89.095452,-8.4852823)"
   d="M 8.7834286,563.92319 A 94.752304,84.145714 0 0 1 13.8791,663.2066"
   sodipodi:ry="84.145714"
   sodipodi:rx="94.752304"
   sodipodi:cy="616.65674"
   sodipodi:cx="-65.053825"
   id="path3073"
   style="fill:none;stroke:#646464;stroke-width:4;stroke-miterlimit:4;stroke-opacity:1;stroke-dasharray:none"
   sodipodi:type="arc"
   sodipodi:start="5.6058828"
   sodipodi:end="6.8693924"
   sodipodi:open="true"
   inkscape:export-filename="/Users/alvarograves/Downloads/flowRoot3146.png"
   inkscape:export-xdpi="90"
   inkscape:export-ydpi="90" /><path
   transform="translate(82.024384,-8.4852823)"
   d="m -21.015318,587.28258 a 55.154327,48.790375 0 0 1 2.93927,54.93768"
   sodipodi:ry="48.790375"
   sodipodi:rx="55.154327"
   sodipodi:cy="616.65674"
   sodipodi:cx="-65.053825"
   id="path3075"
   style="fill:none;stroke:#969696;stroke-width:4;stroke-miterlimit:4;stroke-opacity:1;stroke-dasharray:none"
   sodipodi:type="arc"
   sodipodi:start="5.6371214"
   sodipodi:end="6.8346626"
   sodipodi:open="true"
   inkscape:export-filename="/Users/alvarograves/Downloads/flowRoot3146.png"
   inkscape:export-xdpi="90"
   inkscape:export-ydpi="90" /></svg>